Coordinates
version=1
nRows=14
nColumns=36
inDegrees=yes

Units are S.I. units (second, meters, Newtons, ...)
If the header above contains a line with 'inDegrees', this indicates whether rotational values are in degrees (yes) or radians (no).

endheader
time	pelvis_tilt	pelvis_list	pelvis_rotation	pelvis_tx	pelvis_ty	pelvis_tz	hip_flexion_r	hip_adduction_r	hip_rotation_r	knee_angle_r	knee_angle_r_beta	ankle_angle_r	subtalar_angle_r	mtp_angle_r	hip_flexion_l	hip_adduction_l	hip_rotation_l	knee_angle_l	knee_angle_l_beta	ankle_angle_l	subtalar_angle_l	mtp_angle_l	lumbar_extension	lumbar_bending	lumbar_rotation	arm_flex_r	arm_add_r	arm_rot_r	elbow_flex_r	pro_sup_r	arm_flex_l	arm_add_l	arm_rot_l	elbow_flex_l	pro_sup_l
      0.00000000	      1.03361128	     -0.65745443	     11.84068041	     -0.08084236	      1.19412998	      0.06063086	     -5.12588895	     -0.27214046	    -16.81084444	      0.28798036	      0.00502621	     11.56355884	     -1.75941092	     -5.58948130	      0.35347835	     -1.36999834	     -9.48635414	      0.64784590	      0.01130704	      8.00127086	      6.50132340	     -5.58948130	     -4.65069828	      2.33596197	     -0.10317668	      4.80092565	    -10.06142181	     33.00186339	     20.20337233	     68.80722965	     -1.07824669	     -7.04995069	     30.52044523	     18.89722919	     58.01352222
      0.01666670	     -1.33031810	     -1.33451483	     12.01254943	     -0.08125053	      1.18896896	      0.06108609	     -1.75472937	      0.41062866	    -16.84634273	      0.29692386	      0.00518230	     12.47543208	     -0.80341791	     -6.27025968	      3.10712128	     -1.11880486	    -10.64367557	      0.65290877	      0.01139541	      9.09937714	      6.46589434	     -6.27025968	     -1.31191383	      2.09490298	      0.74770252	      4.05823726	    -11.09734581	     38.65362812	     19.68800605	     68.50610214	     -0.36945027	     -7.82318162	     38.57950332	     18.42292941	     57.36508160
      0.03333330	     -2.65104307	     -0.97784602	     11.54396369	     -0.08164971	      1.18868216	      0.06264521	     -0.37401614	     -0.12737197	    -18.00002613	      0.25651220	      0.00447698	     12.92235312	      0.08110880	     -6.49911921	      4.59285629	     -0.50478966	    -12.36670421	      0.52921172	      0.00923649	      9.31013873	      7.08850898	     -6.49911921	      0.17766046	      0.93554919	      1.46343418	      3.77842508	    -11.44308700	     43.53185711	     19.86948372	     68.22360986	      0.35296784	     -8.88283954	     44.42907201	     18.65971699	     57.30584747
      0.05000000	     -2.81491172	     -0.69715055	     11.31602271	     -0.08170773	      1.19004577	      0.06456501	     -0.11651122	     -0.39362898	    -18.19459469	      0.23510091	      0.00410329	     13.44769172	      0.44426941	     -6.98044829	      4.50588825	     -0.29976865	    -13.35614301	      0.39993416	      0.00698017	      9.32425375	      6.37867167	     -6.98044829	      0.19701776	      0.27089587	      1.76362392	      4.05874589	    -11.72306528	     49.56028735	     20.01356789	     61.12794742	      1.57233661	     -9.67155876	     52.88559593	     18.28379683	     49.22868219
      0.06666670	     -3.19664129	     -0.45833238	     11.01890905	     -0.08329684	      1.19029139	      0.06594107	      0.42280607	     -0.63637315	    -18.15049598	      0.21974317	      0.00383524	     13.19854275	      0.60231143	     -7.04553732	      4.78699045	     -0.02514769	    -13.69390620	      0.31846106	      0.00555819	      9.14354623	      6.19025083	     -7.04553732	      0.18994970	     -0.23254911	      1.69077770	      4.09216736	    -11.63479912	     50.15169193	     20.04727008	     61.20040036	      1.79277655	     -9.88780632	     53.57517691	     18.04747812	     49.68067946
      0.08333330	     -3.25257750	     -0.16668699	     10.89801487	     -0.08325519	      1.19421512	      0.06767612	      0.49844726	     -0.83812605	    -17.81851338	      0.21975099	      0.00383538	     12.17821217	      0.10110185	     -7.13695154	      4.75879063	      0.18079192	    -14.23631356	      0.27802132	      0.00485239	      9.16447084	      6.01723549	     -7.13695154	     -0.12603275	     -0.75238874	      1.32851431	      4.21025985	    -11.35504662	     50.76440726	     19.76278968	     61.04967830	      2.22793258	    -10.08446369	     54.48092925	     17.52783674	     50.72446607
      0.10000000	     -3.58124280	     -0.06087088	     10.92746898	     -0.08112496	      1.19157747	      0.07010049	      0.86148069	     -0.93315213	    -17.85592248	      0.22427913	      0.00391441	     12.12383992	      0.88181812	     -7.31722793	      5.03691792	      0.35534481	    -14.10691135	      0.23942951	      0.00417883	      8.98337317	      6.19089610	     -7.31722793	      0.16590271	     -1.07857805	      0.89420144	      4.51243705	    -11.18805376	     55.59537947	     19.18475041	     57.01713280	      3.08826425	    -10.61731580	     62.57353754	     17.04669444	     43.88613402
      0.11666670	     -3.41972814	      0.03765265	     10.94198024	     -0.08136071	      1.18995535	      0.07051360	      0.74978621	     -0.94301648	    -17.63303729	      0.22915847	      0.00399957	     11.71675142	      0.65122659	     -7.35126408	      4.95432353	      0.45366392	    -14.01228073	      0.21294696	      0.00371663	      9.31438951	      6.80944566	     -7.35126408	     -0.23267168	     -1.25917845	      0.36680569	      4.46167186	    -11.04057996	     55.15328768	     19.34107205	     57.11270474	      3.29480817	    -10.92193784	     62.27730339	     17.08458416	     45.26314672
      0.13333330	     -3.55254952	      0.15647385	     10.98402526	     -0.08469712	      1.18879922	      0.07171241	      1.01835112	     -1.03724149	    -17.45650379	      0.24351375	      0.00425012	     10.96774794	      0.10461201	     -7.38249413	      5.06411592	      0.59517460	    -14.10652119	      0.19683714	      0.00343546	      9.43917263	      7.48619330	     -7.38249413	     -0.22044823	     -1.52867598	     -0.09789909	      4.58916586	    -10.80598762	     55.77348211	     19.07461627	     57.12599145	      3.68416578	    -11.24819858	     63.56935207	     16.91956190	     45.88703631
      0.15000000	     -3.22643424	      0.25874980	     11.14159952	     -0.08418012	      1.18880338	      0.07298352	      0.73839224	     -1.02453009	    -17.19446174	      0.25581637	      0.00446484	     10.36071769	     -0.37133511	     -7.39617308	      4.47758200	      0.59056916	    -14.02417387	      0.18794223	      0.00328021	      9.08221759	      7.03268744	     -7.39617308	     -0.74511946	     -1.68541929	     -0.69682086	      4.67659828	    -10.74204184	     55.67085704	     19.42349432	     56.99497344	      4.06982944	    -11.67827542	     64.00440372	     17.24608200	     46.24891459
      0.16666670	     -3.15731786	      0.25887817	     11.27783184	     -0.08435220	      1.18766337	      0.07369854	      0.74070430	     -0.96907741	    -16.91036539	      0.27710676	      0.00483643	      9.58363137	     -0.86702312	     -7.40975816	      4.28713333	      0.40994863	    -14.41213744	      0.17809139	      0.00310828	      8.61990997	      6.86527630	     -7.40975816	     -0.91861933	     -1.76628192	     -1.14736618	      4.62856271	    -10.68849040	     55.47555825	     19.61635808	     56.84315267	      4.45907287	    -12.02375064	     64.46748017	     17.55692194	     46.58981437
      0.18333330	     -3.05640765	      0.18842353	     11.39044558	     -0.08558463	      1.18770494	      0.07423849	      0.71404256	     -0.85572685	    -16.85190711	      0.30762802	      0.00536912	      9.27306294	     -1.00731574	     -7.45459648	      4.31106420	      0.27558513	    -14.29612102	      0.16617966	      0.00290038	      8.58180423	      7.37151202	     -7.45459648	     -1.01960788	     -1.75662083	     -1.43994160	      4.80481853	    -10.76254056	     57.36224196	     19.70802122	     53.11134212	      5.57748782	    -12.39042292	     71.34901813	     17.62436571	     39.35492296
      0.20000000	     -2.81165904	      0.05670028	     11.46557212	     -0.08617539	      1.18597342	      0.07464409	      0.50883568	     -0.61240858	    -16.57248961	      0.35204343	      0.00614432	      8.90953181	     -1.74627068	     -7.46285907	      3.95369957	     -0.03335896	    -14.80311879	      0.15915345	      0.00277775	      8.40973208	      7.45334415	     -7.46285907	     -1.42671907	     -1.63251581	     -2.10198279	      5.08289883	    -10.73097930	     57.09721900	     19.80713500	     53.45922080	      5.91474708	    -12.62593424	     71.28349889	     17.87624037	     40.32859275
      0.21666670	     -2.63957569	     -0.06090406	     11.46807730	     -0.08380359	      1.18661076	      0.07459367	      0.40229232	     -0.42105457	    -16.09137170	      0.39928221	      0.00696879	      8.53014805	     -2.69246126	     -7.46696960	      3.82278773	     -0.26419718	    -14.87873653	      0.15037628	      0.00262456	      8.49884920	      7.83892400	     -7.46696960	     -1.72113448	     -1.55180895	     -2.70269135	      5.19577922	    -10.70578045	     56.80177234	     20.00376679	     53.64885257	      6.14538616	    -12.84927946	     71.22903054	     18.01327329	     41.08607786
